<?xml version="1.0" encoding="UTF-8" standalone="no"?>
<!-- Created with Inkscape (http://www.inkscape.org/) -->

<svg
   xmlns:dc="http://purl.org/dc/elements/1.1/"
   xmlns:cc="http://creativecommons.org/ns#"
   xmlns:rdf="http://www.w3.org/1999/02/22-rdf-syntax-ns#"
   xmlns:svg="http://www.w3.org/2000/svg"
   xmlns="http://www.w3.org/2000/svg"
   xmlns:sodipodi="http://sodipodi.sourceforge.net/DTD/sodipodi-0.dtd"
   xmlns:inkscape="http://www.inkscape.org/namespaces/inkscape"
   width="210mm"
   height="297mm"
   viewBox="0 0 744.09448819 1052.3622047"
   id="svg3363"
   version="1.1"
   inkscape:version="0.91 r13725"
   sodipodi:docname="cartrythismaddu.svg">
  <defs
     id="defs3365" />
  <sodipodi:namedview
     id="base"
     pagecolor="#ffffff"
     bordercolor="#666666"
     borderopacity="1.0"
     inkscape:pageopacity="0.0"
     inkscape:pageshadow="2"
     inkscape:zoom="0.24748737"
     inkscape:cx="905.16118"
     inkscape:cy="510.86416"
     inkscape:document-units="px"
     inkscape:current-layer="layer1"
     showgrid="false"
     inkscape:window-width="1920"
     inkscape:window-height="1058"
     inkscape:window-x="1272"
     inkscape:window-y="-8"
     inkscape:window-maximized="1" />
  <metadata
     id="metadata3368">
    <rdf:RDF>
      <cc:Work
         rdf:about="">
        <dc:format>image/svg+xml</dc:format>
        <dc:type
           rdf:resource="http://purl.org/dc/dcmitype/StillImage" />
        <dc:title></dc:title>
      </cc:Work>
    </rdf:RDF>
  </metadata>
  <g
     inkscape:label="Layer 1"
     inkscape:groupmode="layer"
     id="layer1">
    <path
       style="fill:#000000;fill-rule:evenodd;stroke:#000000;stroke-width:0.73913646px;stroke-linecap:butt;stroke-linejoin:miter;stroke-opacity:1"
       d="m -145.72582,395.45525 -7.46044,45.61148 -52.22296,11.50747 -8.5262,61.72195 -75.67005,3.13842 2.1316,41.84538 -133.2219,57.5374 -11.72349,180.9813 -181.18175,2.09227 0,124.48995 202.49728,-32.43013 c 0,0 36.23628,-63.81419 84.19614,-93.10596 47.95993,-29.29178 117.23528,-52.30674 132.15611,-56.49127 14.92087,-4.18454 18.11818,-3.13841 18.11818,-3.13841 l 3.19733,32.43018 389.00783,237.47262 37.30212,2.0921 1.06577,81.5985 c 0,0 37.30211,23.4337 73.53847,41.2177 36.23633,17.7844 160.93199,3.7663 198.23411,1.6739 37.30212,-2.0923 950.67127,11.5075 950.67127,11.5075 0,0 102.3142,5.2307 124.6955,-3.1384 22.3812,-8.3691 76.5228,-37.4516 103.1672,-69.8818 26.6441,-32.4302 66.2911,-77.62319 66.2911,-77.62319 l 69.2751,-3.13828 363.4293,-228.05746 0,-57.5374 c 0,0 93.7883,18.41197 135.3536,39.33466 41.5651,20.9227 130.0246,115.49326 130.0246,115.49326 l 3.1973,-106.49652 -103.3803,-112.14562 -2.1316,-38.70698 -54.3545,-124.49002 -113.8246,1.88303 -1.2788,-177.63365 -1220.3125,33.47631 -24.51273,67.99875 -94.85395,-289.7793 -5.3289,-105.65961 -91.65663,3.138419 1.06579,120.305471 43.69676,277.22569 -341.04795,60.67579 -182.24749,11.5075 -8.52621,-120.30549 28.77591,-56.49127 -85.26197,-1.04615 -34.10482,88.92146 z"
       id="path3418"
       inkscape:connector-curvature="0"
       sodipodi:nodetypes="cccccccccccsscccccsscssccccsccccccccccccccccccccc" />
  </g>
  <g
     inkscape:groupmode="layer"
     id="layer2"
     inkscape:label="Layer 2" />
</svg>
