<?xml version="1.0" encoding="UTF-8" standalone="no"?>
<!-- Created with Inkscape (http://www.inkscape.org/) -->

<svg
   xmlns:dc="http://purl.org/dc/elements/1.1/"
   xmlns:cc="http://creativecommons.org/ns#"
   xmlns:rdf="http://www.w3.org/1999/02/22-rdf-syntax-ns#"
   xmlns:svg="http://www.w3.org/2000/svg"
   xmlns="http://www.w3.org/2000/svg"
   xmlns:sodipodi="http://sodipodi.sourceforge.net/DTD/sodipodi-0.dtd"
   xmlns:inkscape="http://www.inkscape.org/namespaces/inkscape"
   width="210mm"
   height="297mm"
   viewBox="0 0 744.09448819 1052.3622047"
   id="svg3363"
   version="1.1"
   inkscape:version="0.91 r13725"
   sodipodi:docname="carbasecolour.svg">
  <defs
     id="defs3365" />
  <sodipodi:namedview
     id="base"
     pagecolor="#ffffff"
     bordercolor="#666666"
     borderopacity="1.0"
     inkscape:pageopacity="0.0"
     inkscape:pageshadow="2"
     inkscape:zoom="0.24748737"
     inkscape:cx="905.16118"
     inkscape:cy="510.86416"
     inkscape:document-units="px"
     inkscape:current-layer="layer1"
     showgrid="false"
     inkscape:window-width="1920"
     inkscape:window-height="1058"
     inkscape:window-x="1272"
     inkscape:window-y="-8"
     inkscape:window-maximized="1" />
  <metadata
     id="metadata3368">
    <rdf:RDF>
      <cc:Work
         rdf:about="">
        <dc:format>image/svg+xml</dc:format>
        <dc:type
           rdf:resource="http://purl.org/dc/dcmitype/StillImage" />
        <dc:title></dc:title>
      </cc:Work>
    </rdf:RDF>
  </metadata>
  <g
     inkscape:label="Layer 1"
     inkscape:groupmode="layer"
     id="layer1">
    <path
       style="fill:#000000;fill-rule:evenodd;stroke:#000000;stroke-width:1px;stroke-linecap:butt;stroke-linejoin:miter;stroke-opacity:1"
       d="m -808.57143,354.3622 -10,62.28572 -70,15.71428 -11.42857,84.28572 -101.4286,4.28571 2.85717,57.14286 -178.57147,78.57143 -15.7142,247.14286 -242.8572,2.85714 0,169.99998 271.4286,-44.2857 c 0,0 48.5714,-87.14285 112.8571,-127.14285 64.28574,-40 157.14289,-71.42857 177.14289,-77.14286 20,-5.71429 24.28571,-4.28571 24.28571,-4.28571 l 4.28571,44.28571 521.42858,324.28571 50,2.8571 1.42857,111.4286 c 0,0 50,32 98.57143,56.2857 48.57142,24.2857 215.714281,5.1429 265.714281,2.2857 49.999999,-2.8571 1274.285729,15.7143 1274.285729,15.7143 0,0 137.1428,7.1429 167.1428,-4.2857 30,-11.4286 102.5715,-51.1428 138.2858,-95.4286 35.7142,-44.2857 88.8571,-106 88.8571,-106 l 92.8571,-4.2857 L 2340,859.50506 l 0,-78.57143 c 0,0 125.7143,25.14286 181.4286,53.71429 55.7143,28.57143 174.2857,157.71428 174.2857,157.71428 L 2700,846.93363 2561.4286,693.79078 l -2.8572,-52.85715 -72.8571,-170 -152.5714,2.57143 -1.7143,-242.57143 -1635.71431,45.71429 -32.85715,92.85714 -127.14285,-395.714284 -7.14286,-144.285716 -122.85714,4.28572 1.42857,164.2857099 58.57143,378.5714301 -457.1428614,82.85714 -244.2857186,15.71429 -11.42857,-164.28572 38.57143,-77.14285 -114.28571,-1.42858 -45.71429,121.42858 z"
       id="path3418"
       inkscape:connector-curvature="0"
       sodipodi:nodetypes="cccccccccccsscccccsscssccccsccccccccccccccccccccc" />
  </g>
  <g
     inkscape:groupmode="layer"
     id="layer2"
     inkscape:label="Layer 2" />
</svg>
